<?xml version="1.0" encoding="UTF-8" standalone="no"?>
<!DOCTYPE svg PUBLIC "-//W3C//DTD SVG 1.1//EN"
 "http://www.w3.org/Graphics/SVG/1.1/DTD/svg11.dtd">
<!-- Generated by graphviz version 2.44.1 (20200629.0846)
 -->
<!-- Pages: 1 -->
<svg width="414pt" height="1553pt"
 viewBox="0.00 0.00 413.75 1552.76" xmlns="http://www.w3.org/2000/svg" xmlns:xlink="http://www.w3.org/1999/xlink">
<g id="graph0" class="graph" transform="scale(1 1) rotate(0) translate(4 1548.76)">
<polygon fill="white" stroke="transparent" points="-4,4 -4,-1548.76 409.75,-1548.76 409.75,4 -4,4"/>
<!-- 0 -->
<g id="node1" class="node">
<title>0</title>
<ellipse fill="none" stroke="black" cx="96.87" cy="-639.4" rx="96.75" ry="107.46"/>
<image xlink:href="faces_few/9336923.4.jpg" width="180px" height="200px" preserveAspectRatio="xMinYMin meet" x="6.87363" y="-739.401"/>
</g>
<!-- 1 -->
<g id="node2" class="node">
<title>1</title>
<ellipse fill="none" stroke="black" cx="121.87" cy="-1437.28" rx="96.75" ry="107.46"/>
<image xlink:href="faces_few/9336923.1.jpg" width="180px" height="200px" preserveAspectRatio="xMinYMin meet" x="31.8736" y="-1537.28"/>
</g>
<!-- 2 -->
<g id="node3" class="node">
<title>2</title>
<ellipse fill="none" stroke="black" cx="121.87" cy="-1171.32" rx="96.75" ry="107.46"/>
<image xlink:href="faces_few/9336923.2.jpg" width="180px" height="200px" preserveAspectRatio="xMinYMin meet" x="31.8736" y="-1271.32"/>
</g>
<!-- 1&#45;&#45;2 -->
<g id="edge1" class="edge">
<title>1&#45;&#45;2</title>
<path fill="none" stroke="black" d="M121.87,-1329.68C121.87,-1312.94 121.87,-1295.63 121.87,-1278.89"/>
<text text-anchor="middle" x="135.87" y="-1300.6" font-family="Times,serif" font-size="14.00">1289</text>
</g>
<!-- 3 -->
<g id="node4" class="node">
<title>3</title>
<ellipse fill="none" stroke="black" cx="121.87" cy="-905.36" rx="96.75" ry="107.46"/>
<image xlink:href="faces_few/9336923.3.jpg" width="180px" height="200px" preserveAspectRatio="xMinYMin meet" x="31.8736" y="-1005.36"/>
</g>
<!-- 2&#45;&#45;3 -->
<g id="edge2" class="edge">
<title>2&#45;&#45;3</title>
<path fill="none" stroke="black" d="M121.87,-1063.72C121.87,-1046.98 121.87,-1029.67 121.87,-1012.93"/>
<text text-anchor="middle" x="135.87" y="-1034.64" font-family="Times,serif" font-size="14.00">1103</text>
</g>
<!-- 3&#45;&#45;0 -->
<g id="edge3" class="edge">
<title>3&#45;&#45;0</title>
<path fill="none" stroke="black" d="M111.81,-798.14C110.2,-781.09 108.53,-763.45 106.91,-746.41"/>
<text text-anchor="middle" x="123.87" y="-768.68" font-family="Times,serif" font-size="14.00">2146</text>
</g>
<!-- 4 -->
<g id="node5" class="node">
<title>4</title>
<ellipse fill="none" stroke="black" cx="308.87" cy="-639.4" rx="96.75" ry="107.46"/>
<image xlink:href="faces_few/9326871.3.jpg" width="180px" height="200px" preserveAspectRatio="xMinYMin meet" x="218.874" y="-739.401"/>
</g>
<!-- 3&#45;&#45;4 -->
<g id="edge4" class="edge">
<title>3&#45;&#45;4</title>
<path fill="none" stroke="black" d="M181.56,-820.12C203.25,-789.49 227.76,-754.9 249.44,-724.3"/>
<text text-anchor="middle" x="229.87" y="-768.68" font-family="Times,serif" font-size="14.00">8349</text>
</g>
<!-- 5 -->
<g id="node6" class="node">
<title>5</title>
<ellipse fill="none" stroke="black" cx="308.87" cy="-373.44" rx="96.75" ry="107.46"/>
<image xlink:href="faces_few/9326871.2.jpg" width="180px" height="200px" preserveAspectRatio="xMinYMin meet" x="218.874" y="-473.441"/>
</g>
<!-- 4&#45;&#45;5 -->
<g id="edge5" class="edge">
<title>4&#45;&#45;5</title>
<path fill="none" stroke="black" d="M308.87,-531.8C308.87,-515.06 308.87,-497.75 308.87,-481.01"/>
<text text-anchor="middle" x="319.37" y="-502.72" font-family="Times,serif" font-size="14.00">707</text>
</g>
<!-- 6 -->
<g id="node7" class="node">
<title>6</title>
<ellipse fill="none" stroke="black" cx="308.87" cy="-107.48" rx="96.75" ry="107.46"/>
<image xlink:href="faces_few/9326871.1.jpg" width="180px" height="200px" preserveAspectRatio="xMinYMin meet" x="218.874" y="-207.48"/>
</g>
<!-- 5&#45;&#45;6 -->
<g id="edge6" class="edge">
<title>5&#45;&#45;6</title>
<path fill="none" stroke="black" d="M308.87,-265.84C308.87,-249.1 308.87,-231.79 308.87,-215.05"/>
<text text-anchor="middle" x="322.87" y="-236.76" font-family="Times,serif" font-size="14.00">1026</text>
</g>
</g>
</svg>
